<svg width="256" height="256" viewBox="0 0 256 256" fill="none" xmlns="http://www.w3.org/2000/svg">
<g clip-path="url(#clip0_57_796)">
<path d="M128 256C198.692 256 256 198.692 256 128C256 57.3075 198.692 0 128 0C57.3075 0 0 57.3075 0 128C0 198.692 57.3075 256 128 256Z" fill="#576FBC"/>
<path d="M170.93 124.41C171.73 139.62 165.88 152.48 155.97 163.36C151.11 168.7 148.84 174.18 148.96 181.21C149.03 185.51 148.32 189.84 147.75 194.12C146.27 205.29 139.78 210.67 127.96 210.65C116.15 210.63 109.76 205.27 108.21 194.06C108.03 192.74 107.78 191.41 107.79 190.09C107.86 177.78 104.42 167.41 95.8598 157.66C81.6098 141.44 81.2998 112.36 93.1998 97.1702C99.0198 89.7502 97.8498 80.0302 100.75 71.5902C103.12 64.6902 104.77 57.5402 106.82 50.5302C107.3 48.8802 108.33 47.4702 110.3 47.5302C112.32 47.5902 113.01 49.1302 113.41 50.8302C115.21 58.6002 117.46 66.3002 118.64 74.1602C119.59 80.4702 123.58 80.1102 128.03 80.1302C132.53 80.1502 136.45 80.3802 137.38 74.1002C138.49 66.5702 140.7 59.2002 142.41 51.7602C142.86 49.8002 143.15 47.5702 145.75 47.5702C148.18 47.5702 148.9 49.5602 149.46 51.5702C151.34 58.2902 153.34 64.9702 155.16 71.7102C158.17 82.8402 159.38 94.4502 166.75 104.22C171.06 109.93 170.73 117.44 170.93 124.43V124.41Z" fill="white"/>
<path d="M194.2 95.9302C210.98 113.3 213.07 160.46 185.98 181.42C180.15 175.07 177.54 166.65 172.46 159.84C171.81 158.97 171.72 156.96 172.28 156.02C177.69 147.02 177.23 135.56 185.24 127.48C193.08 119.56 194.63 108.87 194.21 95.9302H194.2Z" fill="white"/>
<path d="M141.47 153.95C148.08 143.25 153.79 134.02 160.09 123.83C165.85 142.22 159.75 152.63 141.47 153.95Z" fill="#576FBC"/>
<path d="M61.68 95.9302C44.9 113.3 42.81 160.46 69.9 181.42C75.73 175.07 78.34 166.65 83.42 159.84C84.07 158.97 84.16 156.96 83.6 156.02C78.19 147.02 78.65 135.56 70.64 127.48C62.8 119.56 61.25 108.87 61.67 95.9302H61.68Z" fill="white"/>
<path d="M115.46 153.95C108.85 143.25 103.14 134.02 96.8401 123.83C91.0801 142.22 97.1801 152.63 115.46 153.95Z" fill="#576FBC"/>
</g>
<defs>
<clipPath id="clip0_57_796">
<rect width="256" height="256" fill="white"/>
</clipPath>
</defs>
</svg>
