<svg width="256" height="256" viewBox="0 0 256 256" fill="none" xmlns="http://www.w3.org/2000/svg">
<g clip-path="url(#clip0_57_791)">
<path d="M128 256C198.692 256 256 198.692 256 128C256 57.3075 198.692 0 128 0C57.3075 0 0 57.3075 0 128C0 198.692 57.3075 256 128 256Z" fill="#439837"/>
<path d="M194.3 86.1199C196.5 83.9899 196.06 90.3199 195.82 92.2699C191.75 124.88 186.85 157.35 179.67 189.43C177.75 198.04 176.34 199.14 167.57 199.27C157.89 199.41 148.22 199.33 138.62 199.31C136.92 199.31 135.77 197.58 136.42 196.01C152.36 157.9 173.76 105.98 194.3 86.1199Z" fill="white"/>
<path d="M121.47 180.64C120.64 156.9 123.52 143.48 126.48 111.98C126.6 110.66 127.07 109.41 127.63 108.21C131.16 100.73 144.97 71.9699 152.99 62.0399C154.67 59.9599 158 61.0899 158.17 63.7499C158.28 65.5299 158.21 67.1899 158.14 68.9699C157.25 89.2799 154.85 109.46 151.95 129.57C151.39 133.43 149.73 137.25 147.98 140.8C142.25 152.42 149.06 138.52 130.22 175.37C129.03 177.71 128.1 180.67 125.89 182.35C124.09 183.72 121.55 182.9 121.47 180.65V180.64Z" fill="white"/>
<path d="M116.82 86.1199C119.02 83.9899 118.58 90.3199 118.34 92.2699C114.27 124.88 109.37 157.35 102.19 189.43C100.27 198.04 98.8601 199.14 90.09 199.27C80.41 199.41 70.7401 199.33 61.1401 199.31C59.4401 199.31 58.2901 197.58 58.9401 196.01C74.8801 157.9 96.2801 105.98 116.82 86.1199Z" fill="white"/>
</g>
<defs>
<clipPath id="clip0_57_791">
<rect width="256" height="256" fill="white"/>
</clipPath>
</defs>
</svg>
