<svg width="233" height="88" viewBox="0 0 233 88" fill="none" xmlns="http://www.w3.org/2000/svg">
<path d="M22.5821 0.479683C9.13726 1.78777 3.52437 3.55369 1.24006 7.28175C0.261064 8.91687 0 10.6174 0 16.3076C0 22.7826 0.130532 23.3713 1.43585 24.2869C2.21905 24.8756 3.39384 25.3334 3.98123 25.3334C5.15602 25.3334 5.87395 28.1458 5.87395 33.509C5.87395 36.3214 6.78768 43.8429 8.22353 53.1304C8.87619 57.12 11.6174 65.0994 13.5101 68.3042C15.8597 72.4247 21.6031 78.4419 25.3232 80.8619C33.6773 86.2251 45.9473 88.4488 63.6345 87.9256C79.8857 87.4024 86.3471 85.3094 93.7221 77.9841C100.053 71.7053 102.207 66.5383 107.036 46.3937C109.582 35.8635 110.496 34.4901 115.39 33.9668C119.111 33.6398 121.395 34.6209 122.766 37.237C123.222 38.0873 124.985 44.497 126.682 51.4952C130.271 65.9496 132.751 71.7707 137.646 77.1338C141.758 81.6467 146.849 84.6554 153.18 86.3559C160.294 88.2526 183.398 88.4488 191.882 86.6175C208.329 83.0856 219.164 72.8171 223.145 57.0546C225.103 49.2061 225.886 43.5813 226.408 34.2284L226.8 25.8566L229.084 25.0718C232.152 24.0907 233 22.0632 233 15.8498C233 5.84285 229.149 2.76884 214.725 1.13373C198.017 -0.763004 154.485 -0.174363 146 2.1148C138.234 4.14234 133.339 7.80499 130.206 14.0184C129.162 16.1114 128.248 17.8773 128.248 17.9427C128.248 18.0081 126.616 17.4849 124.658 16.7654C120.024 15.1303 112.519 15.1957 108.015 16.8962C106.253 17.6157 104.752 18.1389 104.687 18.1389C104.687 18.1389 104.034 16.7 103.251 14.9995C99.9224 7.67418 93.5916 3.22667 83.8017 1.39535C77.6667 0.283468 31.9804 -0.435981 22.5821 0.479683ZM82.1048 18.2697C88.5661 20.6897 91.242 27.4264 90.4588 39.5262C89.6756 51.1028 86.8692 59.8016 82.1048 64.9686C77.7972 69.6777 75.3171 70.5934 66.5062 70.9858C57.5647 71.3128 43.0756 70.201 38.8986 68.762C31.2625 66.1459 26.237 57.9049 24.5401 45.2818C22.9084 33.4436 22.7126 29.5193 23.4958 25.9875C24.8011 20.101 26.5633 17.8773 31.0014 16.7654C32.1109 16.5038 43.2714 16.4384 55.8025 16.6346C76.4266 16.9616 78.972 17.0924 82.1048 18.2697ZM201.868 17.2233C208.721 19.5778 210.222 24.614 208.525 39.3954C207.22 51.1028 205.197 57.8395 201.868 62.2216C196.712 68.8929 190.447 70.6588 171.65 70.7242C157.879 70.7896 155.66 70.201 151.156 65.1648C145.413 58.8206 142.28 48.4866 142.28 36.1906C142.28 26.3145 144.303 21.4091 149.655 18.6621C152.135 17.3541 153.767 17.2233 168.06 16.8308C196.125 16.046 198.605 16.1114 201.868 17.2233Z" fill="white"/>
</svg>
