<svg width="636" height="656" viewBox="0 0 636 656" fill="none" xmlns="http://www.w3.org/2000/svg">
<path d="M120 0C129.991 2.25802 138.398 10.5212 146 17C147.174 17.9873 148.349 18.9743 149.523 19.9609C155.26 24.8037 160.864 29.6694 166.079 35.0803C167.896 36.8964 169.771 38.5658 171.727 40.2305C176.741 44.5849 181.352 49.3005 186 54.0391C189.127 57.2031 192.266 60.2742 195.656 63.1562C202.588 69.1264 208.873 75.8203 215.3 82.3208C223.989 91.1298 223.989 91.1298 233.167 99.4209C237.43 103.093 241.451 107.045 245.527 110.922C246.207 111.564 246.886 112.206 247.586 112.867C248.195 113.446 248.804 114.024 249.431 114.621C250.968 116.09 250.968 116.09 253 117C253.111 116.203 253.221 115.406 253.335 114.585C253.841 110.972 254.358 107.361 254.875 103.75C255.049 102.496 255.223 101.241 255.402 99.9492C255.576 98.7439 255.75 97.5387 255.93 96.2969C256.087 95.1867 256.244 94.0765 256.406 92.9326C256.946 90.2672 257.643 88.3357 259 86C259.846 86.8572 260.691 87.7145 261.562 88.5977C266.905 93.9903 272.219 99.3219 278.012 104.234C282.199 107.953 286.078 112.005 290 116C290.375 115.371 290.75 114.742 291.137 114.094C294.367 108.691 297.646 103.327 301 98C307.494 103.921 311.777 111.366 316 119C320.368 118.418 323.998 117.329 328.039 115.586C329.238 115.079 330.436 114.573 331.671 114.051C332.633 113.642 332.633 113.642 333.614 113.225C347.792 107.232 362.188 101.977 376.75 97C377.661 96.6855 378.572 96.3711 379.51 96.0471C389.174 92.7189 398.867 89.6231 408.766 87.0625C409.562 86.8509 410.359 86.6392 411.179 86.4211C416.574 85.0841 421.444 84.8174 427 85C424.759 92.266 421.168 98.8354 417.688 105.562C417.335 106.248 416.982 106.933 416.618 107.639C410.333 119.812 403.505 131.53 396 143C399.229 142.709 402.458 142.417 405.688 142.125C406.673 142.036 407.659 141.947 408.675 141.856C413.725 141.399 418.774 140.928 423.82 140.422C424.744 140.33 425.667 140.239 426.618 140.144C428.365 139.97 430.111 139.792 431.856 139.61C437.265 139.073 442.564 138.924 448 139C443.275 148.542 436.63 157.554 429 165C443.466 165.119 457.905 165.014 472.363 164.562C473.073 164.54 473.784 164.518 474.515 164.496C477.473 164.403 480.431 164.31 483.388 164.217C510.867 163.347 538.335 162.779 565.828 162.753C568.026 162.75 570.224 162.743 572.422 162.735C593.73 162.665 615.03 162.848 636 167C632.147 174.931 625.775 180.161 618.969 185.574C615.81 188.155 612.803 190.853 609.812 193.625C609.305 194.095 608.798 194.565 608.275 195.05C607.781 195.508 607.287 195.966 606.777 196.438C603.886 199.106 600.942 201.701 597.969 204.277C595.747 206.222 593.561 208.203 591.375 210.188C582.392 218.287 573.166 226.098 563.777 233.723C560.656 236.282 557.575 238.886 554.5 241.5C550.531 244.873 546.54 248.212 542.5 251.5C536.843 256.109 531.269 260.81 525.713 265.541C524.555 266.528 523.396 267.513 522.236 268.498C516.18 273.642 510.164 278.81 504.312 284.188C500.732 287.473 497.083 290.622 493.312 293.688C492.415 294.421 491.518 295.154 490.594 295.91C488.925 297.254 487.239 298.577 485.531 299.871C480.915 303.406 480.915 303.406 479.5 308.938C479.665 309.948 479.83 310.959 480 312C483.711 314.306 487.554 314.573 491.805 314.965C492.584 315.043 493.363 315.12 494.165 315.2C496.734 315.454 499.305 315.696 501.875 315.938C503.674 316.113 505.473 316.289 507.272 316.465C518.686 317.568 530.107 318.484 541.543 319.323C593.197 323.131 593.197 323.131 605 331C604.812 333.25 604.812 333.25 604 336C602.357 337.362 600.692 338.699 599 340C599 340.99 599 341.98 599 343C600.192 343.543 601.385 344.085 602.613 344.645C604.18 345.367 605.746 346.09 607.312 346.812C608.098 347.169 608.884 347.525 609.693 347.893C610.829 348.419 610.829 348.419 611.988 348.957C612.685 349.276 613.381 349.596 614.099 349.925C616.201 351.114 617.556 352.053 619 354C619.188 356.688 619.188 356.688 619 359C615.73 360.314 612.459 361.626 609.188 362.938C608.259 363.311 607.33 363.684 606.373 364.068C605.034 364.605 605.034 364.605 603.668 365.152C602.846 365.482 602.024 365.812 601.177 366.152C599.469 366.817 597.738 367.421 596 368C595.109 370.673 594.845 372.403 594.754 375.16C594.721 375.954 594.688 376.747 594.654 377.564C594.593 379.234 594.536 380.903 594.482 382.572C594.448 383.364 594.414 384.157 594.379 384.973C594.354 385.697 594.329 386.422 594.303 387.168C594 389 594 389 592 391C587.747 390.742 584.206 388.745 580.477 386.84C576.073 385.347 572.211 385.56 567.861 387.142C566.284 387.936 566.284 387.936 564.676 388.746C563.806 389.176 563.806 389.176 562.919 389.614C561.684 390.227 560.451 390.845 559.221 391.469C556.634 392.782 554.032 394.062 551.43 395.345C550.124 395.989 548.819 396.635 547.515 397.282C527.2 407.354 506.361 415.392 484.807 422.361C467.416 427.066 467.416 427.066 454.604 438.476C453.082 441.595 451.686 444.75 450.312 447.938C449.258 450.295 448.2 452.652 447.141 455.008C446.614 456.186 446.087 457.365 445.545 458.579C437.579 476.218 428.852 494.947 415.988 509.574C413.601 512.538 413.601 512.538 412.883 516.154C413.365 518.4 414.058 520.379 414.938 522.5C415.45 523.905 415.959 525.311 416.465 526.719C416.725 527.425 416.986 528.13 417.255 528.858C419.987 536.71 420.354 544.293 420.312 552.562C420.308 553.713 420.303 554.863 420.298 556.048C419.973 579.752 412.758 601.991 397 620C396.254 620.856 395.507 621.712 394.738 622.594C381.176 637.883 365.032 653.33 343.625 655.312C333.83 655.65 326.422 654.037 318.75 647.812C308.616 638.124 302.982 623.862 298.031 610.965C294.332 601.396 290.579 594.299 283.125 587.152C281 585 281 585 281 583C271.502 583.734 271.502 583.734 263.035 587.488C261.689 589.605 260.858 591.64 260 594C259.23 595.741 258.459 597.482 257.684 599.221C256.132 602.754 254.648 606.321 253.259 609.921C251.865 613.424 251.224 614.851 248 617C241.814 617.753 238.358 616.034 233.375 612.75C232.679 612.3 231.983 611.851 231.266 611.387C220.478 604.207 211.749 595.239 203.663 585.163C197.75 577.983 190.359 574.585 182 570.875C173.226 566.857 165.567 561.902 157.768 556.262C155.144 554.389 152.458 552.623 149.75 550.875C148.92 550.336 148.09 549.797 147.234 549.242C144.813 547.769 144.813 547.769 141 547C141 554.26 141 561.52 141 569C134 568 134 568 131.812 566.875C129.707 565.62 129.707 565.62 126 567C125.34 570.96 124.68 574.92 124 579C119 580 119 580 116.938 578.961C116.298 578.438 115.659 577.914 115 577.375C114.319 576.823 113.639 576.272 112.938 575.703C110.503 573.563 108.222 571.361 106 569C105.443 569.681 104.886 570.361 104.312 571.062C102 573 102 573 99.6016 572.859C92.715 570.585 88.7018 562.855 85.5625 556.75C83.8211 553.163 82.6258 549.942 82 546C81.1389 545.752 80.2778 545.505 79.3906 545.25C64.2484 539.668 52.1583 525.982 45 512C35.5669 490.373 35.1744 465.363 43.582 443.32C46.847 435.675 50.9849 428.735 55.8008 421.973C60.8324 413.696 57.9991 400.331 57 391.125C53.6664 358.738 57.312 324.667 69.2188 294.188C71.2983 288.522 72.3022 284.325 70.0527 278.581C68.7126 275.785 67.2577 273.084 65.75 270.375C65.2108 269.374 64.6715 268.372 64.116 267.341C62.4285 264.217 60.7177 261.107 59 258C57.4388 255.165 55.8787 252.33 54.3203 249.494C53.3164 247.667 52.3099 245.842 51.3008 244.018C48.0183 238.035 45.0735 231.96 42.25 225.75C37.8918 216.276 33.0889 207.223 23 203C22.01 202.581 21.02 202.162 20 201.73C17.8973 200.854 15.7882 199.992 13.6719 199.148C11 198 11 198 8 196C7.57812 193.598 7.57812 193.598 8 191C9.60938 189.121 9.60938 189.121 11.75 187.438C12.8386 186.544 12.8386 186.544 13.9492 185.633C14.626 185.094 15.3027 184.555 16 184C18.5068 182.002 18.5068 182.002 20 180C19.6682 176.201 17.8834 174.649 15.0625 172.25C14.2607 171.564 13.4589 170.878 12.6328 170.172C8.46131 166.731 4.25371 163.339 0 160C0.525077 155.411 0.525077 155.411 2.57422 153.637C10.414 150.115 19.7098 149.482 28 152C27.8556 151.238 27.7113 150.476 27.5625 149.691C26.422 143.348 25.7853 137.442 26 131C31.7964 131.472 36.2608 132.702 41.4453 135.395C42.1292 135.738 42.8131 136.081 43.5177 136.435C45.7266 137.548 47.9259 138.68 50.125 139.812C51.658 140.593 53.1913 141.372 54.7249 142.151C59.1614 144.412 63.5836 146.7 68 149C69.1313 149.589 70.2626 150.178 71.4282 150.785C90.3702 160.728 108.128 172.033 125.309 184.77C126.844 185.887 128.42 186.947 130 188C129.565 182.773 129.13 177.547 128.695 172.32C128.628 171.516 128.561 170.712 128.492 169.884C127.606 159.241 126.715 148.598 125.817 137.957C125.363 132.577 124.911 127.197 124.459 121.817C124.132 117.925 123.804 114.034 123.474 110.142C122.623 100.097 121.793 90.0501 121 80C120.928 79.0966 120.855 78.1932 120.78 77.2624C119.611 62.2153 119.883 47.1047 119.931 32.0232C119.942 28.4022 119.946 24.7812 119.951 21.1602C119.962 14.1068 119.979 7.05338 120 0Z" fill="#666666"/>
</svg>
