<svg width="206" height="208" viewBox="0 0 206 208" fill="none" xmlns="http://www.w3.org/2000/svg">
<path d="M127.775 104C127.775 117.676 116.683 128.762 103 128.762C89.3173 128.762 78.2253 117.676 78.2253 104C78.2253 90.3244 89.3173 79.2381 103 79.2381C116.683 79.2381 127.775 90.3244 127.775 104Z" fill="white"/>
<path fill-rule="evenodd" clip-rule="evenodd" d="M103 208C155.42 208 198.787 169.257 206 118.857H145.057C138.935 136.169 122.417 148.571 103 148.571C83.5833 148.571 67.0649 136.169 60.943 118.857H0C7.21285 169.257 50.5796 208 103 208ZM60.943 89.1429H0C7.21285 38.7431 50.5796 0 103 0C155.42 0 198.787 38.7431 206 89.1429H145.057C138.935 71.8314 122.417 59.4286 103 59.4286C83.5833 59.4286 67.0649 71.8314 60.943 89.1429ZM127.775 104C127.775 117.676 116.683 128.762 103 128.762C89.3173 128.762 78.2253 117.676 78.2253 104C78.2253 90.3244 89.3173 79.2381 103 79.2381C116.683 79.2381 127.775 90.3244 127.775 104Z" fill="white"/>
</svg>
