<svg width="65" height="65" viewBox="0 0 65 65" fill="none" xmlns="http://www.w3.org/2000/svg">
<g opacity="0.1" clip-path="url(#clip0_61_6311)">
<path d="M40.2381 32.5C40.2381 36.7736 36.7736 40.2381 32.5 40.2381C28.2263 40.2381 24.7619 36.7736 24.7619 32.5C24.7619 28.2264 28.2263 24.7619 32.5 24.7619C36.7736 24.7619 40.2381 28.2264 40.2381 32.5Z" fill="black" fill-opacity="0.5"/>
<path fill-rule="evenodd" clip-rule="evenodd" d="M32.5 65C48.8729 65 62.418 52.8928 64.6709 37.1429H45.636C43.7239 42.5527 38.5646 46.4286 32.5 46.4286C26.4354 46.4286 21.2761 42.5527 19.364 37.1429H0.329102C2.58195 52.8928 16.1271 65 32.5 65ZM19.364 27.8571H0.329102C2.58195 12.1072 16.1271 0 32.5 0C48.8729 0 62.418 12.1072 64.6709 27.8571H45.636C43.7239 22.4473 38.5646 18.5714 32.5 18.5714C26.4354 18.5714 21.2761 22.4473 19.364 27.8571ZM40.2381 32.5C40.2381 36.7736 36.7736 40.2381 32.5 40.2381C28.2263 40.2381 24.7619 36.7736 24.7619 32.5C24.7619 28.2264 28.2263 24.7619 32.5 24.7619C36.7736 24.7619 40.2381 28.2264 40.2381 32.5Z" fill="black" fill-opacity="0.5"/>
</g>
<defs>
<clipPath id="clip0_61_6311">
<rect width="65" height="65" fill="white"/>
</clipPath>
</defs>
</svg>
