<svg width="280" height="280" viewBox="0 0 280 280" fill="none" xmlns="http://www.w3.org/2000/svg">
<rect width="280" height="280" rx="140" fill="black"/>
<path d="M119.778 3.11154C73.4222 10.5782 35.4667 37.956 14.6222 79.6449C10.2667 88.0449 5.91111 100.489 4.66667 106.712L2.48889 118.223H42.3111H82.4445L87.4222 107.956C90.2222 102.356 98.9333 93.956 107.333 88.6671C135.956 70.9338 175.778 79.6449 192.889 107.334L199.733 118.223H238.622H277.511L275.333 106.712C270.667 80.5782 247.022 46.0449 221.822 28.0004C193.511 7.77821 153.067 -1.86623 119.778 3.11154Z" fill="#FF0000"/>
<path d="M118.534 117.37C110.445 124.214 108.89 127.636 108.89 139.459C108.89 168.081 139.378 182.081 161.467 163.414C169.556 156.57 171.112 153.147 171.112 141.325C171.112 112.703 140.623 98.703 118.534 117.37Z" fill="white"/>
<path d="M4.66667 174.072C9.33334 200.206 32.9778 234.739 58.1778 252.783C128.178 302.561 226.8 278.294 265.378 201.139C269.733 192.739 274.089 180.294 275.333 174.072L277.511 162.561H237.689H197.556L192.578 172.828C189.778 178.428 181.067 186.828 172.667 192.117C144.044 209.85 104.222 201.139 87.1111 173.45L80.2667 162.561H41.3778H2.48889L4.66667 174.072Z" fill="white"/>
</svg>
