<svg width="281" height="281" viewBox="0 0 281 281" fill="none" xmlns="http://www.w3.org/2000/svg">
<rect x="0.716064" y="0.716064" width="280" height="280" rx="140" fill="black"/>
<path d="M120.494 3.82736C74.1383 11.294 36.1827 38.6718 15.3383 80.3607C10.9827 88.7607 6.62718 101.205 5.38273 107.427L3.20496 118.938H43.0272H83.1605L88.1383 108.672C90.9383 103.072 99.6494 94.6718 108.049 89.3829C136.672 71.6496 176.494 80.3607 193.605 108.05L200.449 118.938H239.338H278.227L276.049 107.427C271.383 81.294 247.738 46.7607 222.538 28.7163C194.227 8.49403 153.783 -1.15042 120.494 3.82736Z" fill="#FF0000"/>
<path d="M119.25 118.086C111.161 124.93 109.606 128.352 109.606 140.174C109.606 168.797 140.094 182.797 162.183 164.13C170.272 157.286 171.828 153.863 171.828 142.041C171.828 113.419 141.339 99.4189 119.25 118.086Z" fill="white"/>
<path d="M5.38273 174.788C10.0494 200.921 33.6938 235.455 58.8939 253.499C128.894 303.277 227.516 279.01 266.094 201.855C270.449 193.455 274.805 181.01 276.049 174.788L278.227 163.277H238.405H198.272L193.294 173.544C190.494 179.144 181.783 187.544 173.383 192.833C144.761 210.566 104.938 201.855 87.8272 174.166L80.9827 163.277H42.0939H3.20496L5.38273 174.788Z" fill="white"/>
</svg>
